<svg width="22" height="23" viewBox="0 0 22 23" fill="none" xmlns="http://www.w3.org/2000/svg">
<g id="Settings">
<path id="Subtract" d="M15.6913 4.08437L16.0663 3.43486V3.43486L15.6913 4.08437ZM15.6913 18.9153L16.0663 19.5648L15.6913 18.9153ZM6.24127 18.9153L5.86627 19.5648L6.24127 18.9153ZM6.24127 4.08437L6.61627 4.73389V4.73389L6.24127 4.08437ZM7.74158 2.0384L8.47374 2.20098L7.74158 2.0384ZM3.91638 18.5838L3.73773 17.8554L3.91638 18.5838ZM3.00766 18.3495L2.43942 18.839L3.00766 18.3495ZM8.3552 21.6728L8.16926 22.3994L8.3552 21.6728ZM7.74164 20.9615L7.00946 21.124L7.74164 20.9615ZM13.5774 21.6728L13.7633 22.3993L13.5774 21.6728ZM18.9248 18.3494L18.3565 17.86L18.9248 18.3494ZM20.8928 8.06889L21.6017 7.82392L20.8928 8.06889ZM20.5398 9.04707L21.0107 9.63079L20.5398 9.04707ZM1.03961 14.9311L0.330745 15.1761L1.03961 14.9311ZM1.39266 13.953L1.86358 14.5367L1.39266 13.953ZM18.0159 4.41592L18.1945 5.14435L18.0159 4.41592ZM18.9245 4.65025L19.4927 4.16073L18.9245 4.65025ZM3.91657 4.41588L3.73797 5.14431L3.91657 4.41588ZM20.5398 13.9529L20.0688 14.5367L20.5398 13.9529ZM20.8928 14.9311L20.1839 14.6861L20.8928 14.9311ZM13.4589 2.20103C13.6872 3.22935 14.3308 4.16487 15.3163 4.73389L16.0663 3.43486C15.4598 3.08469 15.0643 2.51106 14.9232 1.87585L13.4589 2.20103ZM15.3163 4.73389C16.2226 5.25711 17.2532 5.3751 18.1945 5.14435L17.8373 3.68748C17.2566 3.82986 16.6245 3.75709 16.0663 3.43486L15.3163 4.73389ZM21.6017 7.82392C21.1323 6.46565 20.4104 5.22595 19.4927 4.16073L18.3563 5.13976C19.1524 6.06382 19.7776 7.13818 20.1839 8.31387L21.6017 7.82392ZM20.1162 11.5C20.1162 10.7451 20.4639 10.072 21.0107 9.63079L20.0688 8.46335C19.1842 9.17703 18.6162 10.2725 18.6162 11.5H20.1162ZM21.0107 13.3692C20.4639 12.928 20.1162 12.2549 20.1162 11.5H18.6162C18.6162 12.7275 19.1842 13.823 20.0688 14.5367L21.0107 13.3692ZM19.493 18.8389C20.4105 17.7738 21.1323 16.5342 21.6017 15.1761L20.1839 14.6861C19.7777 15.8617 19.1525 16.936 18.3565 17.86L19.493 18.8389ZM16.0663 19.5648C16.6245 19.2425 17.2566 19.1698 17.8375 19.3122L18.1947 17.8554C17.2533 17.6245 16.2226 17.7425 15.3163 18.2657L16.0663 19.5648ZM14.9231 21.124C15.0641 20.4887 15.4597 19.915 16.0663 19.5648L15.3163 18.2657C14.3306 18.8348 13.687 19.7705 13.4587 20.799L14.9231 21.124ZM10.9662 22.75C11.9309 22.75 12.8682 22.6284 13.7633 22.3993L13.3914 20.9462C12.6168 21.1444 11.8044 21.25 10.9662 21.25V22.75ZM8.16926 22.3994C9.0643 22.6284 10.0016 22.75 10.9662 22.75V21.25C10.1281 21.25 9.31567 21.1444 8.54113 20.9462L8.16926 22.3994ZM5.86627 19.5648C6.47285 19.915 6.86845 20.4887 7.00946 21.124L8.47382 20.799C8.24555 19.7705 7.60199 18.8348 6.61627 18.2657L5.86627 19.5648ZM4.09502 19.3122C4.67588 19.1698 5.30807 19.2425 5.86627 19.5648L6.61627 18.2657C5.7099 17.7424 4.67914 17.6245 3.73773 17.8554L4.09502 19.3122ZM0.330745 15.1761C0.800105 16.5343 1.52188 17.7738 2.43942 18.839L3.5759 17.86C2.77994 16.936 2.15474 15.8617 1.74847 14.6862L0.330745 15.1761ZM1.81627 11.5C1.81627 12.2549 1.4686 12.9281 0.921749 13.3692L1.86358 14.5367C2.74823 13.823 3.31627 12.7276 3.31627 11.5H1.81627ZM0.92175 9.63076C1.4686 10.0719 1.81627 10.7451 1.81627 11.5H3.31627C3.31627 10.2724 2.74824 9.17699 1.86358 8.46331L0.92175 9.63076ZM2.43972 4.16068C1.52204 5.2259 0.800158 6.4656 0.330747 7.82387L1.74847 8.31383C2.15478 7.13813 2.78008 6.06378 3.57615 5.13972L2.43972 4.16068ZM5.86627 3.43486C5.30812 3.75711 4.67598 3.82987 4.09517 3.68746L3.73797 5.14431C4.67931 5.37511 5.70998 5.25714 6.61627 4.73389L5.86627 3.43486ZM7.00941 1.87582C6.86836 2.51104 6.47278 3.08469 5.86627 3.43486L6.61627 4.73389C7.60187 4.16486 8.2454 3.22932 8.47374 2.20098L7.00941 1.87582ZM10.9662 0.25C10.0016 0.25 9.06423 0.371582 8.16917 0.600641L8.54106 2.05381C9.31562 1.85559 10.128 1.75 10.9662 1.75V0.25ZM13.7635 0.600706C12.8683 0.371605 11.9309 0.25 10.9662 0.25V1.75C11.8044 1.75 12.6169 1.85561 13.3916 2.05387L13.7635 0.600706ZM8.47374 2.20098C8.48814 2.13612 8.5135 2.09016 8.53329 2.066C8.5503 2.04525 8.55372 2.05057 8.54106 2.05381L8.16917 0.600641C7.48063 0.776847 7.12133 1.37177 7.00941 1.87582L8.47374 2.20098ZM1.86358 8.46331C1.80468 8.41579 1.77038 8.36363 1.75659 8.32859C1.74501 8.29913 1.7533 8.29984 1.74847 8.31383L0.330747 7.82387C0.0679799 8.5842 0.476457 9.27153 0.92175 9.63076L1.86358 8.46331ZM3.73773 17.8554C3.67338 17.8712 3.62106 17.8688 3.59063 17.8618C3.56446 17.8557 3.56752 17.8503 3.5759 17.86L2.43942 18.839C2.90244 19.3765 3.5937 19.4352 4.09502 19.3122L3.73773 17.8554ZM8.54113 20.9462C8.5538 20.9495 8.55038 20.9548 8.53337 20.934C8.51357 20.9099 8.48822 20.8639 8.47382 20.799L7.00946 21.124C7.12135 21.6281 7.48065 22.2232 8.16926 22.3994L8.54113 20.9462ZM13.4587 20.799C13.4443 20.8638 13.419 20.9098 13.3992 20.934C13.3822 20.9547 13.3788 20.9494 13.3914 20.9462L13.7633 22.3993C14.4519 22.2231 14.8112 21.6281 14.9231 21.124L13.4587 20.799ZM18.3565 17.86C18.3649 17.8502 18.368 17.8557 18.3418 17.8618C18.3114 17.8688 18.2591 17.8711 18.1947 17.8554L17.8375 19.3122C18.3388 19.4351 19.03 19.3764 19.493 18.8389L18.3565 17.86ZM20.1839 8.31387C20.1791 8.29988 20.1874 8.29918 20.1758 8.32863C20.162 8.36367 20.1277 8.41583 20.0688 8.46335L21.0107 9.63079C21.456 9.27155 21.8644 8.58424 21.6017 7.82392L20.1839 8.31387ZM1.74847 14.6862C1.7533 14.7002 1.745 14.7009 1.75659 14.6714C1.77038 14.6364 1.80467 14.5842 1.86358 14.5367L0.921749 13.3692C0.476455 13.7285 0.0679786 14.4158 0.330745 15.1761L1.74847 14.6862ZM18.1945 5.14435C18.2588 5.12858 18.3111 5.13092 18.3416 5.13796C18.3677 5.144 18.3647 5.14948 18.3563 5.13976L19.4927 4.16073C19.0298 3.62332 18.3386 3.5646 17.8373 3.68748L18.1945 5.14435ZM3.57615 5.13972C3.56778 5.14944 3.56472 5.14396 3.59089 5.13791C3.62131 5.13088 3.67362 5.12853 3.73797 5.14431L4.09517 3.68746C3.59388 3.56455 2.90271 3.62325 2.43972 4.16068L3.57615 5.13972ZM20.0688 14.5367C20.1277 14.5842 20.162 14.6363 20.1758 14.6714C20.1874 14.7008 20.1791 14.7001 20.1839 14.6861L21.6017 15.1761C21.8644 14.4158 21.456 13.7284 21.0107 13.3692L20.0688 14.5367ZM14.9232 1.87585C14.8113 1.37182 14.452 0.776922 13.7635 0.600706L13.3916 2.05387C13.3789 2.05063 13.3823 2.0453 13.3993 2.06606C13.4191 2.09022 13.4445 2.13617 13.4589 2.20103L14.9232 1.87585Z" fill="white"/>
<circle id="Ellipse 33" cx="3.15" cy="3.15" r="3.15" transform="matrix(-1 0 0 1 14.1162 8.34998)" stroke="white" stroke-width="1.5"/>
</g>
</svg>
