<svg width="15" height="15" viewBox="0 0 15 15" fill="none" xmlns="http://www.w3.org/2000/svg">
<g id="LOGO">
<path id="Vector" d="M7.71109 11.3181L7.71127 11.3179C8.14843 10.8782 8.61561 10.6642 9.07492 10.6571C9.53406 10.6501 10.0059 10.8495 10.4532 11.277C10.5762 11.395 10.7191 11.5126 10.883 11.5538C11.0616 11.5986 11.24 11.5478 11.414 11.3864L11.414 11.3864C11.5595 11.2514 11.6248 11.0818 11.5973 10.8957C11.571 10.7178 11.4625 10.5417 11.299 10.3752L7.71109 11.3181ZM7.71109 11.3181C7.60019 11.4292 7.48925 11.5402 7.37832 11.6512C6.93467 12.0952 6.49119 12.539 6.05099 12.9863C5.77177 13.2772 5.43654 13.5076 5.06582 13.6631C4.69507 13.8186 4.29671 13.896 3.89519 13.8905C2.60436 13.8866 1.50223 13.132 1.06186 11.9191C0.622663 10.7095 0.976167 9.32212 1.93 8.51033C2.0611 8.39806 2.20718 8.32571 2.36256 8.32193C2.52092 8.31808 2.66747 8.38592 2.79524 8.51184C2.92475 8.63948 2.99211 8.78946 2.98879 8.94987C2.98552 9.10716 2.9147 9.25665 2.8032 9.38859C2.77574 9.42151 2.74619 9.45091 2.71947 9.47676C2.71248 9.48352 2.70578 9.48996 2.6993 9.49619C2.67972 9.51498 2.66218 9.53182 2.64495 9.5498C1.8997 10.3389 1.90759 11.4149 2.65373 12.1559C3.37753 12.8727 4.48053 12.8419 5.23672 12.0693L5.23677 12.0693C5.80674 11.4876 6.37737 10.9062 6.95684 10.3326L6.95685 10.3326M7.71109 11.3181L6.95685 10.3326M6.95685 10.3326C8.19704 9.10514 10.0744 9.12689 11.2989 10.3751L6.95685 10.3326Z" fill="#18AF00" stroke="#18AF00" stroke-width="0.25"/>
<path id="Vector_2" d="M11.0086 13.8901L11.0069 13.8901C10.4564 13.8991 9.91244 13.7687 9.42498 13.5109L9.42495 13.5109L9.42182 13.5091C9.10995 13.3325 8.75367 13.1173 8.57655 12.7345C8.49048 12.5608 8.47234 12.361 8.52571 12.1745L8.52569 12.1745L8.52639 12.1723C8.55716 12.072 8.61561 11.9825 8.69507 11.9142C8.77453 11.846 8.87172 11.8018 8.97533 11.7869L8.97526 11.7864L8.98629 11.7858C9.12212 11.7785 9.25637 11.8174 9.36741 11.8962L9.36745 11.8961L9.3708 11.8987C9.49001 11.9894 9.60238 12.0889 9.70698 12.1964C10.0934 12.5391 10.5343 12.7111 11.0392 12.6602L11.0393 12.6602C11.7827 12.5858 12.3153 12.2039 12.5777 11.5062L12.5778 11.5061C12.7172 11.1363 12.7429 10.7887 12.6688 10.4657C12.5945 10.1422 12.4182 9.83523 12.1408 9.55025L12.1405 9.54995C11.9117 9.31329 11.6768 9.07868 11.4411 8.84335C11.0684 8.47117 10.694 8.09722 10.3391 7.71061C9.17095 6.43852 9.22192 4.64225 10.4287 3.41314C10.5886 3.25019 10.7647 3.14165 10.9436 3.11514C11.1296 3.08755 11.3028 3.15146 11.4365 3.30099L11.4366 3.30109C11.5901 3.47304 11.6414 3.64937 11.6008 3.82698C11.5632 3.99209 11.4501 4.13723 11.329 4.26472L11.329 4.26473C10.9001 4.7159 10.7014 5.18797 10.7095 5.64799C10.7175 6.10834 10.9331 6.57757 11.3739 7.0219L11.3742 7.02218C11.5237 7.17382 11.6734 7.32508 11.823 7.47627C12.2352 7.89299 12.6469 8.30909 13.0537 8.73063C13.9285 9.63604 14.1884 10.9505 13.6579 12.102L13.6579 12.1021C13.1217 13.2648 12.1748 13.8554 11.0086 13.8901Z" fill="#18AF00" stroke="#18AF00" stroke-width="0.25"/>
<path id="Vector_3" d="M12.3468 2.5212C13.144 3.312 13.1492 4.46569 12.3581 5.30218C12.3377 5.32387 12.3161 5.34468 12.2945 5.3655C12.2636 5.39529 12.2326 5.42513 12.205 5.45771C12.0074 5.69143 11.9874 5.94976 12.205 6.16503C12.4225 6.3803 12.6654 6.36185 12.9012 6.15976C13.815 5.3839 14.1553 4.05096 13.7332 2.88936C13.3111 1.72777 12.2572 1.00463 11.017 1.00023M12.3468 2.5212L12.2588 2.60997M12.3468 2.5212L12.2588 2.60995C12.2588 2.60995 12.2588 2.60996 12.2588 2.60997M12.3468 2.5212C11.5705 1.75149 10.3878 1.79103 9.5871 2.60907C9.01705 3.19074 8.44701 3.77154 7.86826 4.34443C6.67768 5.52272 4.87964 5.50252 3.703 4.30314M12.2588 2.60997C13.0059 3.35105 13.0137 4.42712 12.2673 5.21629L12.2671 5.21652C12.249 5.23578 12.23 5.25403 12.2086 5.27473C12.2037 5.2794 12.1988 5.28418 12.1936 5.28913C12.1671 5.31483 12.1374 5.34413 12.1097 5.37681L12.1095 5.37701C11.9982 5.50875 11.9276 5.65835 11.9243 5.8157C11.921 5.97597 11.9879 6.12613 12.1171 6.25389C12.2445 6.37994 12.3909 6.44787 12.5494 6.44387C12.7047 6.43994 12.8509 6.3674 12.9823 6.25487M12.2588 2.60997C11.5359 1.89316 10.4328 1.92378 9.67643 2.6965L9.67638 2.69656C9.10638 3.27819 8.53571 3.85962 7.95619 4.43327L7.95619 4.43328C6.71592 5.66075 4.83847 5.63899 3.61382 4.39073M12.9823 6.25487C12.9823 6.25493 12.9822 6.25499 12.9821 6.25505L12.9012 6.15977L12.9825 6.25468C12.9825 6.25474 12.9824 6.2548 12.9823 6.25487ZM12.9823 6.25487C13.9373 5.44388 14.2899 4.05541 13.8507 2.84667C13.4103 1.63468 12.309 0.880035 11.018 0.875235M11.018 0.875235C11.0182 0.875238 11.0184 0.87524 11.0186 0.875243L11.017 1.00023M11.018 0.875235C11.0178 0.875235 11.0176 0.875234 11.0175 0.875233L11.017 1.00023M11.018 0.875235C10.6166 0.870141 10.2183 0.947735 9.8476 1.10325C9.47692 1.25875 9.14162 1.48887 8.86214 1.77948C8.38503 2.26498 7.904 2.74585 7.42313 3.22657C7.34941 3.30027 7.27569 3.37397 7.20198 3.44768L7.20173 3.44793C6.76455 3.88762 6.29713 4.10167 5.83766 4.10874C5.37832 4.11581 4.90644 3.91634 4.45953 3.48879L4.45949 3.48875C4.33618 3.3709 4.19323 3.25324 4.02948 3.21208C3.85087 3.16719 3.67267 3.2181 3.49876 3.37939L3.49874 3.37941C3.35322 3.51445 3.28793 3.68404 3.31542 3.8701C3.34171 4.04804 3.45029 4.22423 3.61382 4.39073M11.017 1.00023L3.703 4.30314M3.61382 4.39073L3.703 4.30314M3.61382 4.39073C3.6138 4.39071 3.61378 4.39069 3.61377 4.39068L3.703 4.30314" fill="#18AF00" stroke="#18AF00" stroke-width="0.25"/>
<path id="Vector_4" d="M3.95191 0.875699L3.95191 0.875693L3.95311 0.875668C4.51467 0.864003 5.06908 1.00523 5.56017 1.28478L5.5602 1.28472L5.56375 1.2869C5.72141 1.38373 5.90207 1.50289 6.05583 1.65039C6.20979 1.79808 6.34342 1.98044 6.39678 2.20521L6.39685 2.20549C6.42682 2.33304 6.42472 2.48731 6.38267 2.62595C6.34069 2.76437 6.25286 2.90425 6.09753 2.97091L6.09762 2.97111L6.09063 2.97363C6.02173 2.99848 5.9484 3.00815 5.87547 3.00195C5.80387 2.99585 5.73444 2.97461 5.67152 2.93972C5.57553 2.89253 5.49505 2.82661 5.42504 2.76172C5.39161 2.73073 5.35918 2.69864 5.32855 2.66832C5.32668 2.66646 5.32481 2.66461 5.32294 2.66277C5.29012 2.63029 5.25925 2.59988 5.22807 2.57147C4.84918 2.22706 4.41747 2.05476 3.92345 2.10561L3.92335 2.10562C3.19763 2.17974 2.67626 2.56044 2.41903 3.25878L2.41899 3.25887C2.14855 3.99128 2.30886 4.65199 2.84694 5.21655L2.84722 5.21685C3.06991 5.45204 3.29851 5.68522 3.52779 5.91909C3.8941 6.29273 4.26213 6.66813 4.61053 7.05633C5.75411 8.32809 5.70428 10.123 4.52262 11.3519C4.36608 11.5149 4.19292 11.6238 4.01639 11.6504C3.83222 11.6782 3.66151 11.6134 3.53034 11.4641L3.53011 11.4639C3.37973 11.2918 3.3298 11.1162 3.36909 10.9396C3.40574 10.7749 3.51627 10.6299 3.63557 10.5022C4.05533 10.0512 4.25033 9.57882 4.24241 9.11776C4.23447 8.6564 4.02299 8.18667 3.59148 7.74213L3.59132 7.74196C3.45395 7.59992 3.31648 7.45816 3.17906 7.31645C2.76616 6.89066 2.35372 6.46535 1.94577 6.0343L1.94571 6.03424C1.08978 5.12872 0.835851 3.81522 1.35486 2.66468L1.35488 2.66463C1.87978 1.50242 2.80665 0.910421 3.95191 0.875699Z" fill="#18AF00" stroke="#18AF00" stroke-width="0.25"/>
</g>
</svg>
