<svg width="69" height="69" viewBox="0 0 69 69" fill="none" xmlns="http://www.w3.org/2000/svg">
<g id="Group 236">
<circle id="Ellipse 59" cx="34.5" cy="34.5" r="34.5" fill="#EAE100"/>
<g id="LOGO">
<path id="Vector" d="M46.2071 55.0761C44.9426 55.0933 43.6879 54.8558 42.5201 54.3783C41.3523 53.9007 40.2961 53.193 39.4164 52.2989C37.605 50.5047 35.7764 48.7274 33.9535 46.9472C30.966 44.0179 27.4204 43.9587 24.3613 46.8092C23.56 47.5584 22.7502 48.0457 21.7658 47.1557C20.9874 46.4515 21.1448 45.4938 22.1578 44.4883C26.0268 40.6435 31.9389 40.5787 35.8536 44.3559C37.7566 46.1924 39.631 48.0542 41.5054 49.9188C44.1381 52.5411 48.0271 52.6679 50.5825 50.2005C53.2009 47.6655 53.2181 43.9672 50.6197 41.2857C50.4537 41.1167 50.2677 40.9646 50.116 40.7872C49.4636 40.0351 49.3978 39.2098 50.116 38.5197C50.8343 37.8297 51.6327 37.8888 52.4054 38.5338C55.4072 41.0238 56.529 45.2938 55.1411 49.0203C53.7532 52.7467 50.2849 55.0649 46.2071 55.0761Z" fill="white" stroke="white"/>
<path id="Vector_2" d="M22.8312 55.0757C19.1524 54.9691 16.1785 53.166 14.4804 49.5766C12.8108 46.0432 13.6242 42.0051 16.3897 39.2149C18.2106 37.3753 20.06 35.5694 21.9093 33.741C24.9174 30.7854 24.9945 27.3502 22.0634 24.3441C21.2843 23.5448 20.8476 22.7485 21.7181 21.7978C22.423 21.0295 23.4533 21.1977 24.4323 22.1708C28.2509 25.9621 28.4079 31.478 24.7176 35.3955C22.814 37.4174 20.7649 39.3047 18.8013 41.2844C16.892 43.1969 16.3069 45.474 17.2744 47.9753C18.1963 50.3645 20.0885 51.6797 22.6771 51.9321C24.4751 52.1088 26.0391 51.5031 27.3833 50.3365C27.716 50.0022 28.0738 49.6929 28.4535 49.4111C28.7432 49.2108 29.093 49.112 29.4467 49.1307C29.7097 49.1674 29.9566 49.2768 30.1587 49.4461C30.3608 49.6154 30.5098 49.8376 30.5883 50.0869C30.7361 50.5904 30.6852 51.1302 30.4456 51.5984C29.9262 52.6977 28.8702 53.3342 27.8342 53.9063C26.2924 54.7014 24.5722 55.1034 22.8312 55.0757Z" fill="white" stroke="white"/>
<path id="Vector_3" d="M22.7911 14.1547C24.0555 14.1388 25.3099 14.3769 26.4775 14.8544C27.6452 15.332 28.7016 16.0389 29.5823 16.932C31.3938 18.7291 33.2225 20.5064 35.0455 22.2838C38.0333 25.2132 41.582 25.2724 44.6384 22.4218C45.4426 21.6726 46.2496 21.1853 47.2341 22.0753C48.0125 22.7795 47.8551 23.7372 46.842 24.7428C42.9728 28.5877 37.0602 28.6524 33.1453 24.8752C31.2421 23.0387 29.3676 21.1768 27.4931 19.3121C24.8602 16.6897 20.971 16.563 18.4183 19.0305C15.7968 21.5655 15.7797 25.2639 18.3811 27.9454C18.5442 28.1144 18.7302 28.2666 18.8847 28.444C19.5344 29.1933 19.6002 30.0214 18.8847 30.7115C18.1693 31.4016 17.3708 31.3424 16.5953 30.6946C13.5903 28.2074 12.4714 23.9344 13.8594 20.2107C15.2473 16.4869 18.713 14.1688 22.7911 14.1547Z" fill="white" stroke="white"/>
<path id="Vector_4" d="M46.0111 14.156C49.6165 14.2625 52.5259 16.0657 54.1889 19.6552C55.8239 23.1886 55.0273 27.2267 52.3219 30.017C50.536 31.8566 48.7249 33.6625 46.9139 35.4881C43.9681 38.4466 43.8926 41.8818 46.7629 44.888C47.5287 45.6872 47.9536 46.4837 47.1011 47.4343C46.4108 48.1999 45.4019 48.0344 44.4432 47.0613C40.7037 43.27 40.55 37.7539 44.1637 33.8364C46.0251 31.8145 48.0318 29.9272 49.9547 27.9474C51.8244 26.0349 52.3974 23.7578 51.4499 21.2564C50.5472 18.8672 48.6942 17.552 46.1593 17.2996C44.3985 17.1229 42.8669 17.7286 41.5505 18.8952C41.1117 19.285 40.7121 19.7645 40.1783 20.0169C40.0194 20.1044 39.844 20.1573 39.6635 20.1723C39.4829 20.1873 39.3012 20.164 39.1302 20.1039C38.4063 19.801 38.2191 18.7943 38.384 18.11C38.6858 16.8705 39.9128 16.0292 40.9385 15.4151C42.4893 14.5545 44.2392 14.1201 46.0111 14.156Z" fill="white" stroke="white"/>
</g>
</g>
</svg>
