<svg width="15" height="15" viewBox="0 0 15 15" fill="none" xmlns="http://www.w3.org/2000/svg">
<g id="LOGO">
<path id="Vector" d="M7.88072 11.3191L7.8809 11.3189C8.32947 10.8791 8.80975 10.6641 9.28301 10.657C9.75617 10.6499 10.2413 10.8503 10.7004 11.2781L10.7856 11.1866L10.7002 11.2779C10.8266 11.3961 10.9726 11.513 11.1393 11.5538C11.3199 11.598 11.501 11.5484 11.6791 11.3874L11.6791 11.3874C11.828 11.2527 11.8957 11.0826 11.8673 10.8952C11.8402 10.7164 11.7285 10.5401 11.561 10.3739C10.3063 9.12708 8.38441 9.10545 7.11386 10.3313L7.11385 10.3314C6.51945 10.905 5.93412 11.4864 5.34947 12.068L5.34941 12.0681C4.57247 12.8419 3.43727 12.8732 2.69302 12.1547C2.30708 11.781 2.11699 11.3264 2.11502 10.8706C2.11306 10.4147 2.29937 9.94789 2.68394 9.55087C2.70166 9.53285 2.71969 9.51596 2.7398 9.49714C2.74644 9.49092 2.75332 9.48449 2.76048 9.47773C2.78788 9.45188 2.81817 9.4225 2.84632 9.38961M7.88072 11.3191L2.03745 8.60515M7.88072 11.3191C7.76697 11.4302 7.65317 11.5412 7.53939 11.6522C7.08429 12.0962 6.62937 12.5401 6.17781 12.9873M7.88072 11.3191L6.17781 12.9873M2.84632 9.38961C2.96049 9.25789 3.03353 9.10806 3.0369 8.94982C3.04034 8.78823 2.97069 8.63791 2.83818 8.51061C2.7073 8.38487 2.55816 8.318 2.39791 8.32181C2.24048 8.32554 2.09167 8.39705 1.95734 8.50919M2.84632 9.38961C2.84621 9.38973 2.84611 9.38985 2.846 9.38998L2.75158 9.30806L2.8466 9.38928C2.84651 9.38939 2.84642 9.3895 2.84632 9.38961ZM1.95734 8.50919L2.03745 8.60515M1.95734 8.50919C1.95744 8.50911 1.95754 8.50902 1.95764 8.50894L2.03745 8.60515M1.95734 8.50919C0.979426 9.32056 0.615836 10.7088 1.06691 11.92C1.51898 13.1338 2.6491 13.8865 3.96994 13.8904M2.03745 8.60515C1.10103 9.38187 0.751106 10.7139 1.18405 11.8763C1.617 13.0388 2.69891 13.7619 3.97097 13.7654M3.96994 13.8904C3.96972 13.8904 3.96949 13.8904 3.96927 13.8904L3.97097 13.7654M3.96994 13.8904C4.38091 13.8959 4.78874 13.8187 5.1684 13.6634C5.54802 13.5082 5.89154 13.2781 6.17781 12.9873M3.96994 13.8904C3.97017 13.8904 3.9704 13.8904 3.97062 13.8904L3.97097 13.7654M3.97097 13.7654L6.17781 12.9873" fill="#EF3D3D" stroke="#EF3D3D" stroke-width="0.25"/>
<path id="Vector_2" d="M11.2664 13.8902L11.2648 13.8903C10.7012 13.8992 10.1442 13.7691 9.64484 13.5116L9.64482 13.5116L9.64171 13.5099C9.32218 13.3335 8.95705 13.1186 8.77533 12.7357C8.68684 12.5617 8.66811 12.3611 8.72307 12.1739L8.72305 12.1738L8.72378 12.1715C8.75549 12.0708 8.81559 11.9813 8.89675 11.9133L8.97702 12.0092L8.89675 11.9133C8.97789 11.8454 9.07678 11.8016 9.18184 11.787L9.18178 11.7865L9.19253 11.7859C9.33032 11.7787 9.4668 11.8171 9.58004 11.8954L9.58008 11.8954L9.58343 11.8979C9.70561 11.9885 9.82081 12.088 9.92807 12.1954C10.3248 12.5385 10.7785 12.7114 11.2986 12.6603L11.2987 12.6603C12.064 12.5856 12.6107 12.2023 12.8796 11.5054L12.8796 11.5053C13.0225 11.1358 13.0488 10.7889 12.9729 10.4665C12.8968 10.1436 12.7161 9.83669 12.4314 9.5515L12.4311 9.55121C12.1964 9.31451 11.9554 9.07988 11.7136 8.84455C11.3314 8.47238 10.9473 8.09847 10.5833 7.71187C9.38465 6.43934 9.43714 4.64137 10.6753 3.41208C10.8392 3.24915 11.0192 3.14145 11.2009 3.11519C11.3892 3.08797 11.5652 3.15074 11.7021 3.29994L11.7022 3.30003C11.8594 3.47174 11.9127 3.64879 11.8708 3.82778C11.8321 3.99348 11.7159 4.13873 11.5918 4.26599L11.5918 4.26599C11.1516 4.71747 10.9483 5.18917 10.9565 5.64805C10.9648 6.10731 11.1854 6.57624 11.638 7.0209L11.6382 7.02117C11.7916 7.17281 11.9451 7.32408 12.0986 7.47526C12.5215 7.892 12.9438 8.30812 13.361 8.72967C14.2582 9.6349 14.5255 10.9504 13.9808 12.1033L13.9808 12.1033C13.4304 13.2666 12.4598 13.8557 11.2664 13.8902Z" fill="#EF3D3D" stroke="#EF3D3D" stroke-width="0.25"/>
<path id="Vector_3" d="M12.6394 2.5212C13.4571 3.312 13.4625 4.46569 12.651 5.30218M12.6394 2.5212L12.5525 2.61108C12.9389 2.98475 13.1292 3.43932 13.1311 3.8951C13.1331 4.35115 12.9465 4.81804 12.5612 5.21514L12.561 5.21537C12.5424 5.23466 12.5229 5.25294 12.5009 5.27365C12.4959 5.27831 12.4909 5.28309 12.4856 5.28803C12.4584 5.31372 12.428 5.34298 12.3996 5.37561L12.3994 5.37582C12.2854 5.50735 12.2125 5.65731 12.2092 5.81563C12.2058 5.97706 12.275 6.12757 12.4071 6.255C12.5376 6.38087 12.6866 6.44782 12.847 6.44387C13.0044 6.43999 13.1533 6.36831 13.2879 6.25591C14.267 5.44534 14.6297 4.05598 14.1786 2.8457C13.7265 1.63277 12.5972 0.880012 11.2763 0.875235C10.8653 0.870148 10.4576 0.947567 10.078 1.10282C9.69842 1.25805 9.35484 1.48787 9.0683 1.77833C8.57885 2.26387 8.08538 2.74479 7.59208 3.22555C7.51648 3.29922 7.44089 3.37288 7.36532 3.44656L7.36507 3.44681C6.91649 3.88663 6.43595 4.10164 5.96252 4.10874C5.48921 4.11584 5.00401 3.91542 4.5454 3.4877L4.54535 3.48766C4.41867 3.36963 4.27267 3.25271 4.10613 3.2119C3.92559 3.16766 3.74463 3.21736 3.56661 3.37832L3.56658 3.37834C3.41775 3.51298 3.35002 3.68308 3.37843 3.87056C3.40552 4.04927 3.51721 4.22561 3.68463 4.3918C4.93941 5.63868 6.8615 5.66033 8.13215 4.43439L8.13216 4.43438C8.7266 3.86075 9.31197 3.27932 9.89666 2.69769L9.89672 2.69763C10.6738 1.92367 11.8091 1.89255 12.5525 2.61106L12.651 5.30218M12.6394 2.5212C11.843 1.75149 10.6298 1.79103 9.8085 2.60907L12.6394 2.5212ZM12.651 5.30218C12.63 5.32387 12.6079 5.34468 12.5857 5.3655M12.651 5.30218L12.5857 5.3655M12.5857 5.3655C12.554 5.39529 12.5222 5.42513 12.4938 5.45771L12.5857 5.3655Z" fill="#EF3D3D" stroke="#EF3D3D" stroke-width="0.25"/>
<path id="Vector_4" d="M3.79744 10.5873L3.70703 10.501C4.13786 10.0498 4.33739 9.57776 4.32928 9.11782C4.32116 8.65753 4.10471 8.18811 3.66178 7.74326L3.66162 7.7431C3.52071 7.60106 3.3797 7.4593 3.23874 7.3176C2.8152 6.89181 2.39213 6.46649 1.97366 6.03545L1.97361 6.03539C1.09575 5.13001 0.834553 3.81539 1.36752 2.66359L1.36754 2.66354C1.90626 1.5007 2.85642 0.910331 4.02827 0.875696L4.02827 0.87569L4.02943 0.875667C4.60426 0.864027 5.17193 1.00494 5.675 1.28412L5.67503 1.28406L5.67856 1.28617C5.8402 1.38295 6.02529 1.50197 6.18283 1.6493C6.34048 1.79672 6.47777 1.97914 6.53265 2.2045L6.53272 2.20479C6.56358 2.33285 6.56141 2.48769 6.51814 2.62681C6.4748 2.76611 6.38449 2.90532 6.22667 2.97136L6.22675 2.97155L6.21987 2.97397C6.14994 2.99855 6.07561 3.00809 6.00174 3.00197C5.92918 2.99595 5.85868 2.97495 5.79465 2.94031C5.69668 2.89338 5.61436 2.8277 5.54252 2.76279C5.50825 2.73182 5.47502 2.69975 5.44359 2.66942C5.44167 2.66757 5.43975 2.66572 5.43784 2.66388C5.40415 2.63138 5.37243 2.60093 5.3404 2.57247L5.42341 2.47902M3.79744 10.5873L3.70718 10.5008C3.58497 10.6284 3.47127 10.7736 3.43352 10.9389C3.39292 11.1168 3.44481 11.2933 3.59888 11.4651L3.59911 11.4653C3.73339 11.6142 3.90694 11.6779 4.09327 11.6505C4.27261 11.6242 4.4495 11.516 4.61011 11.353C5.82239 10.1238 5.87364 8.32729 4.70016 7.05511C4.3428 6.66694 3.96535 6.2916 3.58963 5.918C3.35444 5.68413 3.11994 5.45094 2.89147 5.2157L2.89118 5.21541C2.61253 4.93038 2.43541 4.62338 2.36083 4.29998C2.28637 3.97711 2.31218 3.62968 2.45226 3.25985L2.4523 3.25976C2.71584 2.56223 3.25095 2.18004 3.99813 2.10565L3.99823 2.10564C4.50726 2.05457 4.95151 2.22783 5.34051 2.57257L5.42341 2.47902M3.79744 10.5873C3.55855 10.8366 3.42603 11.0851 3.69194 11.3816L1.48096 2.71608C0.970939 3.8183 1.21941 5.07797 2.06335 5.94838C2.48123 6.37882 2.90354 6.80337 3.32694 7.22902C3.468 7.37082 3.60918 7.51275 3.75036 7.65507C4.66927 8.57796 4.69281 9.64956 3.79744 10.5873ZM5.42341 2.47902C5.45946 2.51104 5.49467 2.54501 5.53001 2.57911C5.62887 2.67449 5.72882 2.77093 5.85148 2.82893L4.52106 11.2653C5.68758 10.0826 5.73553 8.36188 4.60824 7.13982C4.25207 6.75294 3.87884 6.38185 3.50506 6.01021C3.26948 5.77599 3.03369 5.54155 2.8018 5.30279C2.21854 4.70619 2.03981 3.99588 2.33536 3.21558C2.61697 2.47027 3.19499 2.06 3.98575 1.98127C4.53501 1.92616 5.01278 2.11511 5.42341 2.47902Z" fill="#EF3D3D" stroke="#EF3D3D" stroke-width="0.25"/>
</g>
</svg>
